<svg id="Capa_1" data-name="Capa 1" xmlns="http://www.w3.org/2000/svg" xmlns:xlink="http://www.w3.org/1999/xlink" viewBox="0 0 1000 317.74"><defs><style>.cls-1{fill:none;}.cls-2{fill:#0b1126;}.cls-3{fill:#1573fc;}.cls-4{fill:#fff;}.cls-5{fill:#ddd;}.cls-6{clip-path:url(#clip-path);}.cls-7{opacity:0.05;}</style><clipPath id="clip-path"><rect class="cls-1" x="-1257.09" y="6.35" width="1000" height="1000"/></clipPath></defs><rect class="cls-2" x="39.83" y="21.87" width="279.13" height="279.13" rx="30.78"/><path class="cls-3" d="M95.33,167.45s-4.08,25.8,24.53,39.8l3.24-8.11C98,189.14,95.33,167.45,95.33,167.45Z"/><path class="cls-3" d="M134.49,176.8A54,54,0,0,0,121,166.18c-2.69-1.52-11.85-7.18-13.68-19.45-1.49-9.94,2.51-20.94,2.51-20.94s-13.53,14.57-7.54,31.67c3.79,10.82,9.82,14.24,15.66,17.56,3.49,2,6.79,3.86,10,7.53Z"/><path class="cls-3" d="M263.09,167.45s-2.71,21.69-27.77,31.69l3.24,8.11C267.17,193.25,263.09,167.45,263.09,167.45Z"/><path class="cls-3" d="M237.46,166.18a54,54,0,0,0-13.53,10.62l6.57,5.75c3.22-3.67,6.52-5.55,10-7.53,5.84-3.32,11.87-6.74,15.66-17.56,6-17.1-7.54-31.67-7.54-31.67s4,11,2.51,20.94C249.31,159,240.15,164.66,237.46,166.18Z"/><path class="cls-3" d="M86.55,93.84c-.11-.14-10-14.52-.68-24.29a18.66,18.66,0,0,1,14.74-6.2c5.82.28,10.57,3.15,12.71,5.87.6.78,1.19,1.59,1.83,2.46,5.15,7.11,12.2,16.86,34.33,8.28a45,45,0,0,1,15.93-3.42h.74c5.58.09,8.86,1.7,10.06,2.42l.53.2a6.47,6.47,0,0,0,5.31,0l.53-.2c1.2-.72,4.48-2.33,10-2.42h.75A45.08,45.08,0,0,1,209.31,80c22.12,8.58,29.18-1.17,34.33-8.28.63-.87,1.22-1.68,1.83-2.46,2.13-2.72,6.89-5.59,12.7-5.87a18.68,18.68,0,0,1,14.75,6.2c9.36,9.77-.58,24.15-.68,24.29l7.14,5c4.94-7,11.27-23.43-.16-35.36-7.5-7.84-15.82-9.16-21.47-8.88-7.54.37-15.05,4-19.15,9.2-.71.9-1.38,1.83-2,2.73-4.8,6.62-8.26,11.4-24.1,5.26-17.27-6.7-28.25-3.42-33.07-1h0c-4.82-2.39-15.81-5.67-33.07,1C130.47,78,127,73.18,122.22,66.56c-.65-.9-1.33-1.83-2-2.73-4.09-5.22-11.61-8.83-19.15-9.2-5.65-.28-14,1-21.47,8.88-11.43,11.93-5.1,28.34-.15,35.36Z"/><path class="cls-3" d="M163.47,173.61c2.15-5.15,4.82-11.56,4.82-20.88,0-20.78-15.77-24.25-27.29-26.78-7.27-1.61-12.86-3.37-15.53-7.44-6.19-9.45,1.52-20.67,1.52-20.67s-15,11.64-9.5,24.2c3.75,8.5,12.84,10.5,21.63,12.43,12.68,2.79,20.44,5.17,20.44,18.26,0,7.57-2.11,12.63-4.14,17.52-1.66,4-3.22,7.7-3.22,12.05h8.74C160.94,179.7,162.06,177,163.47,173.61Z"/><path class="cls-3" d="M203.58,170.25c-2-4.89-4.15-9.95-4.15-17.52,0-13.09,7.77-15.47,20.44-18.26,8.79-1.93,17.88-3.93,21.64-12.43,5.55-12.56-9.51-24.2-9.51-24.2s7.71,11.22,1.52,20.67c-2.67,4.07-8.25,5.83-15.53,7.44-11.52,2.53-27.29,6-27.29,26.78,0,9.32,2.67,15.73,4.82,20.88,1.42,3.4,2.54,6.09,2.54,8.69h8.73C206.79,178,205.23,174.21,203.58,170.25Z"/><path class="cls-3" d="M189.13,108.11h-.26a13,13,0,0,1-9.48-4.57,13,13,0,0,1-9.48,4.57H169a20.4,20.4,0,0,0-16.91,8.18,30.51,30.51,0,0,1,8,4.06,12.21,12.21,0,0,1,9-3.51h.86a18.28,18.28,0,0,0,9.46-2.75,18.34,18.34,0,0,0,9.46,2.75h.87a12.17,12.17,0,0,1,9,3.51,30.51,30.51,0,0,1,8-4.06,20.38,20.38,0,0,0-16.91-8.18Z"/><path class="cls-3" d="M222.25,113.72h0l1.26-.42a7.53,7.53,0,0,0,4.85-6.69h0c-3.23-5.22-10.57-13.26-25.21-13.26-17.6,0-23.79-9.35-23.79-9.35s-6.18,9.35-23.78,9.35c-14.65,0-22,8-25.22,13.26h0a7.54,7.54,0,0,0,4.85,6.69l1.27.42h0c0-.12,4.08-11.65,19.08-11.65,17.82,0,23.78-7.26,23.78-7.26s6,7.26,23.79,7.26C218.18,102.07,222.22,113.6,222.25,113.72Z"/><path class="cls-3" d="M207.08,259.74c-5.7,6.47-15,9.75-27.69,9.75s-22-3.28-27.68-9.75a27.4,27.4,0,0,1-6.29-15,35.55,35.55,0,0,1-9-4c0,5.51,1.09,16.08,8.64,24.71s19,12.79,34.31,12.79,26.88-4.3,34.31-12.79,8.65-19.2,8.65-24.71a35.87,35.87,0,0,1-9,4A27.48,27.48,0,0,1,207.08,259.74Z"/><path class="cls-4" d="M87.08,202.93V181.38A24.72,24.72,0,0,0,76.35,161a24.7,24.7,0,0,0,10.73-20.37V127.37a28.12,28.12,0,0,1,28.09-28.09V90.54a36.87,36.87,0,0,0-36.82,36.83v13.27a16,16,0,0,1-16,16v8.73a16,16,0,0,1,16,16v21.55a36.87,36.87,0,0,0,36.82,36.83V231A28.12,28.12,0,0,1,87.08,202.93Z"/><path class="cls-4" d="M216.6,185l-4,7.76a19.73,19.73,0,1,1-28.81,17.51H175a19.73,19.73,0,1,1-28.81-17.51l-4-7.76a28.46,28.46,0,1,0,37.2,40.4A28.46,28.46,0,1,0,216.6,185Z"/><path class="cls-4" d="M121.82,132a21.31,21.31,0,0,0,20.25,27.3h.6l.59,0h.22c1.11,0,2.21-.16,3.36-.27a49.72,49.72,0,0,1,8.84-.26,33.15,33.15,0,0,0,.53-6,25.31,25.31,0,0,0-.14-2.72,57.44,57.44,0,0,0-10.07.29c-1.11.11-2.1.2-3,.24h0l-.42,0h-.45a12.54,12.54,0,0,1-12.15-14.93A31.81,31.81,0,0,1,121.82,132Z"/><path class="cls-4" d="M280.44,140.64V127.37a36.87,36.87,0,0,0-36.83-36.83v8.74a28.13,28.13,0,0,1,28.1,28.09v13.27A24.72,24.72,0,0,0,282.43,161a24.73,24.73,0,0,0-10.72,20.37v21.55a28.13,28.13,0,0,1-28.1,28.1v8.73a36.87,36.87,0,0,0,36.83-36.83V181.38a16,16,0,0,1,16-16v-8.73A16,16,0,0,1,280.44,140.64Z"/><path class="cls-4" d="M215.3,159.26h.22l.59,0h.6A21.28,21.28,0,0,0,237,132a31.74,31.74,0,0,1-8.09,3.63,12.54,12.54,0,0,1-12.16,14.93h-.44l-.42,0h0c-.93,0-1.92-.13-3-.24a57.4,57.4,0,0,0-10.07-.29,25.44,25.44,0,0,0-.13,2.72,33.19,33.19,0,0,0,.52,6,49.64,49.64,0,0,1,8.84.26C213.09,159.1,214.19,159.21,215.3,159.26Z"/><polygon class="cls-4" points="198.63 194.51 198.63 186.08 179.39 191.43 160.16 186.08 160.16 194.51 179.39 206.89 198.63 194.51"/><path class="cls-3" d="M511.79,83.2H472.65V186.8H435.24V83.2H395.91V50.58H511.79Z"/><path class="cls-3" d="M525.41,186.8V50.58h37.42V186.8Z"/><path class="cls-3" d="M653.58,114.28v26.86h23.65a48.52,48.52,0,0,1-11.56,8.92,35.51,35.51,0,0,1-17.27,4.51A30.94,30.94,0,0,1,635.54,152a28.76,28.76,0,0,1-9.88-7.29,34,34,0,0,1-6.43-11.23,43.69,43.69,0,0,1-2.3-14.58,45.56,45.56,0,0,1,2.21-14.48A33.51,33.51,0,0,1,625.47,93a29.79,29.79,0,0,1,9.69-7.48,27.88,27.88,0,0,1,12.28-2.69,32.37,32.37,0,0,1,17.07,4.89,31.37,31.37,0,0,1,12.09,13l27.82-21.3q-7.29-13.81-22.25-21.78a70.07,70.07,0,0,0-33.39-8,71.87,71.87,0,0,0-27.44,5.18,68.26,68.26,0,0,0-37,36.07,65.85,65.85,0,0,0-5.37,26.67q0,16.69,5.28,29.64a65.25,65.25,0,0,0,14.48,22.07,62,62,0,0,0,21.21,13.81,68.35,68.35,0,0,0,25.23,4.7,50.76,50.76,0,0,0,33.57-12.32V186.8H709.6V114.28Z"/><path class="cls-3" d="M825.1,154.19V186.8H728V50.58h95.36V83.2h-58v19.18h49.51V132.7H765.43v21.49Z"/><path class="cls-3" d="M842.56,186.8V50.58h62.55a42.17,42.17,0,0,1,18.42,4,46.3,46.3,0,0,1,14.58,10.84,50.53,50.53,0,0,1,9.5,15.25A46,46,0,0,1,951,97.78a49.91,49.91,0,0,1-2.3,15.16A45.78,45.78,0,0,1,942,126.27a46.8,46.8,0,0,1-10.56,10.46l28.78,50.07H919.11l-24-41.82H880V186.8ZM880,112.36h23.6a6.91,6.91,0,0,0,4.42-1.73,13.2,13.2,0,0,0,3.55-5A19.36,19.36,0,0,0,913,97.78a17.24,17.24,0,0,0-1.64-8,13.42,13.42,0,0,0-4-4.9,8.1,8.1,0,0,0-4.71-1.72H880Z"/><path class="cls-5" d="M461.17,273.44a18.13,18.13,0,0,1-5.73,3.82,17.14,17.14,0,0,1-6.77,1.33H423.39c-.64,0-1.27,0-1.91-.09a10.76,10.76,0,0,1-1.91-.38,14.21,14.21,0,0,1-1.9-.48,17.57,17.57,0,0,1-4.39-2.29,21.51,21.51,0,0,1-2.39-1.91c-.7-.76-1.33-1.52-1.91-2.29a17.78,17.78,0,0,1-1.52-2.67,7.27,7.27,0,0,1-.48-1.24,7.27,7.27,0,0,1-.48-1.24,11.88,11.88,0,0,1-.28-1.24,6.53,6.53,0,0,1-.29-1.34h10.4a7.65,7.65,0,0,0,1.05,2.1,8.18,8.18,0,0,0,1.72,1.63,8.47,8.47,0,0,0,2,1,8.3,8.3,0,0,0,2.29.29h25.28a7.54,7.54,0,1,0,0-15.07H423.39a16.4,16.4,0,0,1-6.2-1.15,16.71,16.71,0,0,1-5.34-3.24,17.15,17.15,0,0,1-4-4.87,18,18,0,0,1-1.91-5.91,2.26,2.26,0,0,0-.09-.67V237a2.25,2.25,0,0,0-.1-.67v-.67a17.26,17.26,0,0,1,5.15-12.4,19.61,19.61,0,0,1,5.73-3.91,17.11,17.11,0,0,1,6.77-1.33h25.28c.63,0,1.27,0,1.91.09l1.9.38a14.38,14.38,0,0,1,1.91.48c.58.25,1.18.51,1.82.76a14.91,14.91,0,0,1,2.57,1.53,16.81,16.81,0,0,1,4.29,4.29,14.4,14.4,0,0,1,1.53,2.58c.19.44.35.86.48,1.24a6.51,6.51,0,0,1,.47,1.24,9.91,9.91,0,0,1,.29,1.24,10.55,10.55,0,0,1,.29,1.33h-10.4a6.91,6.91,0,0,0-1.05-2,6.06,6.06,0,0,0-1.72-1.62,5.44,5.44,0,0,0-2-1.05,6.79,6.79,0,0,0-2.29-.38H423.39a7.27,7.27,0,0,0-5.34,2.19,7.46,7.46,0,0,0-2.2,5.34,7.56,7.56,0,0,0,2.2,5.44,7.24,7.24,0,0,0,5.34,2.2h25.28a18.26,18.26,0,0,1,3.34.28,17.49,17.49,0,0,1,3.34,1,26.21,26.21,0,0,1,2.95,1.62,12.15,12.15,0,0,1,2.68,2.19,15.44,15.44,0,0,1,1,1.15,9.57,9.57,0,0,1,1,1.14c.32.45.6.89.86,1.34s.51.92.76,1.43a9.23,9.23,0,0,1,.48,1.14,6.77,6.77,0,0,1,.47,1.24,9.17,9.17,0,0,1,.29,1.34,7.28,7.28,0,0,1,.29,1.24,2.26,2.26,0,0,0,.09.67v.66a1.69,1.69,0,0,0,.1.58v.66a17.2,17.2,0,0,1-1.34,6.78A16.87,16.87,0,0,1,461.17,273.44Z"/><path class="cls-5" d="M534.72,235.66V237a1.63,1.63,0,0,0-.1.57,3,3,0,0,1-.09.67c-.07.45-.13.89-.2,1.34s-.25.79-.38,1.24-.25.85-.38,1.24a7.76,7.76,0,0,1-.57,1.24,14.38,14.38,0,0,1-2.67,4.1,18.91,18.91,0,0,1-3.82,3.24,16.39,16.39,0,0,1-4.48,2.1,15.33,15.33,0,0,1-5,.57h-7.54v25.28H499.42V253.31h-7.54a15.33,15.33,0,0,1-5-.57,16.52,16.52,0,0,1-4.48-2.1,18.91,18.91,0,0,1-3.82-3.24,14.38,14.38,0,0,1-2.67-4.1c-.19-.45-.38-.86-.57-1.24s-.26-.8-.38-1.24-.26-.86-.38-1.24-.13-.89-.19-1.34a2.53,2.53,0,0,1-.1-.67,1.63,1.63,0,0,0-.1-.57V218h10.12v18.31a3,3,0,0,0,.09.67,1.63,1.63,0,0,0,.1.57,5.61,5.61,0,0,0,.19.67,6.45,6.45,0,0,0,1,2,8,8,0,0,0,1.72,1.62,6.14,6.14,0,0,0,2.09,1,6.55,6.55,0,0,0,2.29.39h25.19a6.55,6.55,0,0,0,2.29-.39,6.27,6.27,0,0,0,2.1-1,8.16,8.16,0,0,0,1.71-1.62,6.45,6.45,0,0,0,1.05-2c.07-.19.13-.38.19-.57a2.59,2.59,0,0,0,.1-.67,3,3,0,0,0,.09-.67,1.09,1.09,0,0,0,0-.67V218h10.12v17.64Z"/><path class="cls-5" d="M554.94,241.1a6.87,6.87,0,0,0,2.39,1.72,8.65,8.65,0,0,0,2.95.48h25.19a13.55,13.55,0,0,1,3.34.38,18.19,18.19,0,0,1,3.34.95,15.19,15.19,0,0,1,3,1.62,14,14,0,0,1,2.67,2.1c.39.38.73.77,1.05,1.15s.64.79,1,1.24.6.89.86,1.33a14.23,14.23,0,0,1,.76,1.34c.19.44.35.86.48,1.24a7.25,7.25,0,0,1,.47,1.24,12.06,12.06,0,0,1,.29,1.24,9,9,0,0,1,.28,1.33V259a1.91,1.91,0,0,1,.1.66v.67a1.9,1.9,0,0,1,.1.57,17.2,17.2,0,0,1-1.34,6.78,16.2,16.2,0,0,1-3.91,5.72,16.25,16.25,0,0,1-12.4,5.15H542.63V268.48h42.84a8.42,8.42,0,0,0,2.86-.48,7.89,7.89,0,0,0,2.48-1.71,7.55,7.55,0,0,0,1.62-2.39,7.44,7.44,0,0,0,.57-3v-.66a2,2,0,0,1-.09-.58c-.07-.25-.13-.47-.19-.66a1.11,1.11,0,0,0-.19-.58,8.36,8.36,0,0,0-1-2.09,10,10,0,0,0-1.62-1.63,8,8,0,0,0-2.1-1,6.79,6.79,0,0,0-2.29-.38H560.28a17.9,17.9,0,0,1-6.2-1,16.71,16.71,0,0,1-5.34-3.24,17.06,17.06,0,0,1-4-4.87,17.88,17.88,0,0,1-1.9-6,1.63,1.63,0,0,1-.1-.57,2.53,2.53,0,0,0-.1-.67v-1.24a18.43,18.43,0,0,1,1.24-6.77,18,18,0,0,1,3.92-5.73,17.67,17.67,0,0,1,12.49-5.15h42.84v10.11H560.28a7.26,7.26,0,0,0-2.95.58,5.73,5.73,0,0,0-2.39,1.62,7.93,7.93,0,0,0-1.72,2.48,7.19,7.19,0,0,0-.57,2.86,7.47,7.47,0,0,0,.57,3A6.93,6.93,0,0,0,554.94,241.1Z"/><path class="cls-5" d="M671.52,228.22H646.33v50.37H636.22V228.22H611V218.11h60.49Z"/><path class="cls-5" d="M689.45,228.22v15.17h30.24V253.5H689.45v15.08h50.46v10.11H679.34V218.11h60.57v10.11Z"/><path class="cls-5" d="M818.43,218.11v60.48H808.31v-47q-6.67,6-20.13,17.94v9H778.07v-9q-6.68-5.92-20.13-17.94v47H747.83V218.11h10.11l22.71,20.13c.51.51,1.33,1.27,2.48,2.29l2.57-2.29q7.54-6.68,22.61-20.13Z"/><path class="cls-5" d="M838.27,241.1a6.93,6.93,0,0,0,2.38,1.72,8.71,8.71,0,0,0,3,.48H868.8a13.42,13.42,0,0,1,3.33.38,18,18,0,0,1,3.34.95,15.28,15.28,0,0,1,3,1.62,14.68,14.68,0,0,1,2.67,2.1c.38.38.73.77,1,1.15s.64.79,1,1.24a14.23,14.23,0,0,1,.86,1.33,12.27,12.27,0,0,1,.77,1.34,13.25,13.25,0,0,1,.47,1.24,7.27,7.27,0,0,1,.48,1.24,12.06,12.06,0,0,1,.29,1.24,10.5,10.5,0,0,1,.28,1.33V259a1.91,1.91,0,0,1,.1.66v.67a1.88,1.88,0,0,1,.09.57,17.19,17.19,0,0,1-1.33,6.78,16.2,16.2,0,0,1-3.91,5.72,16.25,16.25,0,0,1-12.4,5.15H826V268.48H868.8a8.42,8.42,0,0,0,2.86-.48,8,8,0,0,0,2.48-1.71,7.55,7.55,0,0,0,1.62-2.39,7.44,7.44,0,0,0,.57-3v-.66a2,2,0,0,1-.09-.58c-.07-.25-.13-.47-.19-.66a1,1,0,0,0-.2-.58,8,8,0,0,0-1-2.09,9.66,9.66,0,0,0-1.63-1.63,7.81,7.81,0,0,0-2.1-1,6.73,6.73,0,0,0-2.28-.38H843.61a17.86,17.86,0,0,1-6.2-1,16.71,16.71,0,0,1-5.34-3.24,16.89,16.89,0,0,1-4-4.87,18.12,18.12,0,0,1-1.91-6,1.88,1.88,0,0,1-.09-.57,3,3,0,0,0-.1-.67v-1.24a16.67,16.67,0,0,1,5.15-12.5,17.72,17.72,0,0,1,12.5-5.15h42.83v10.11H843.61a7.31,7.31,0,0,0-3,.58,5.76,5.76,0,0,0-2.38,1.62,7.76,7.76,0,0,0-1.72,2.48,7.19,7.19,0,0,0-.57,2.86,7.47,7.47,0,0,0,.57,3A6.8,6.8,0,0,0,838.27,241.1Z"/><g class="cls-6"><g class="cls-7"><path class="cls-4" d="M-351.4,1173.88l-4.33-7.33c96.19-57,172.89-128.62,210.42-196.61l6.61-12c46.81-84.74,95.22-172.35,121.11-249C37,547.42,10.17,355.71-14.76,225.57-48.81,47.79-105-61.73-105.57-62.82L-98-66.74C-97.45-65.64-40.71,44.87-6.4,224,18.71,355.06,45.7,548.24-9.53,711.72-35.66,789.09-84.26,877-131.26,962.1l-6.6,11.95C-176.1,1043.34-253.94,1116.17-351.4,1173.88Z"/><path class="cls-4" d="M-317,1179.73l-4.34-7.33c96.45-57.1,172.81-126.66,215-195.86,45.8-75.09,102.26-172.61,132.6-261C84.49,545.82,61,355.27,38.33,226.69,6.86,48.5-48.06-65-48.61-66.15L-41-69.89c.56,1.14,56,115.64,87.68,295.1,16,90.87,24,170.43,24.39,243.22.46,93.27-11.92,177.33-36.82,249.86C3.67,807.47-53.08,905.51-99.1,981-142,1051.34-219.42,1121.92-317,1179.73Z"/><path class="cls-4" d="M-282.68,1185.58l-4.33-7.33c95-56.27,173-125.57,219.59-195.11C-3.07,887,43.18,799.19,70.05,722.06c46.54-133.59,53.53-295.26,21.37-494.24C62.55,49.21,8.9-68.3,8.36-69.47L16.08-73c.55,1.18,54.67,119.66,83.74,299.5,32.4,200.41,25.29,363.44-21.73,498.4C51,802.67,4.4,891.16-60.35,987.88-107.6,1058.45-186.56,1128.66-282.68,1185.58Z"/><path class="cls-4" d="M-248.32,1191.43l-4.34-7.33C-157.94,1128-80.42,1060.82-28.47,989.75,35,903,84.17,812.68,113.87,728.6c49.41-139.9,59.44-303.34,30.64-499.66C118.26,49.93,65.86-71.59,65.33-72.79l7.8-3.41c.53,1.22,53.37,123.69,79.8,303.9,12.94,88.19,17.92,168.18,15.24,244.53-3.31,94.45-18.88,181.65-46.27,259.2-30,84.86-79.6,175.92-143.5,263.35C-74.23,1066.76-152.62,1134.76-248.32,1191.43Z"/><path class="cls-4" d="M-214,1197.28l-4.33-7.33c92.63-54.84,171.74-121.78,228.77-193.57,64-80.54,114.89-170.88,147.22-261.25,51.81-144.84,65.24-314.77,39.91-505.07C174.24,50.54,122.83-74.86,122.31-76.1l7.86-3.26C130.69-78.11,182.53,48.33,206,229,231.56,420.59,218,591.86,165.71,738c-32.64,91.23-84,182.41-148.57,263.67C-40.53,1074.26-120.44,1141.9-214,1197.28Z"/><path class="cls-4" d="M-179.6,1203.13l-4.34-7.33C177.09,982,256.68,647,259.87,403.51c3.47-264.28-79.74-480.78-80.59-482.93l7.93-3.1c.85,2.17,84.6,220,81.17,485.87-2,156.3-33.29,298.43-93,422.45C100.78,980.88-18.66,1107.83-179.6,1203.13Z"/></g></g></svg>